<?xml version="1.0" encoding="utf-8"?>
<!-- Generator: Adobe Illustrator 19.2.0, SVG Export Plug-In . SVG Version: 6.00 Build 0)  -->
<svg version="1.1" id="Layer_1" xmlns="http://www.w3.org/2000/svg" xmlns:xlink="http://www.w3.org/1999/xlink" x="0px" y="0px"
	 viewBox="0 0 256.9 156.5" style="enable-background:new 0 0 256.9 156.5;" xml:space="preserve">
<style type="text/css">
	.st0{fill:#EA688C;}
	.st1{fill:#FFFFFF;}
</style>
<title>SwootLogoOnly</title>
<g>
	<path d="M52.9,152.7c-16.7,0-29.6-6.2-37.3-17.9c-2.7-4.1-1.6-9.5,2.6-12.2c1.5-1,3.3-1.5,5.1-1.5c2.6,0,5,1.1,6.7,3
		c-0.7-1.2-1.2-2.5-1.3-4c-0.1-0.9,0-1.8,0.2-2.7c-3.1,0.8-6.2,1.4-9.4,1.6c-0.4,0-0.9,0-1.3,0c-4.3,0-8.2-1.4-10.8-3.9
		c-2.4-2.3-3.7-5.4-3.6-8.9c0.2-8.2,7.9-14.6,12.9-18.8l0.7-0.6c10.5-8.9,23.5-16.8,40.9-25c16-7.6,32.8-13.8,49.9-18.6
		c-2-7.8-4.2-15.7-6.4-23.4c-0.9-3.1-0.1-6.3,2.1-8.6c1.7-1.8,4.2-2.8,6.7-2.8c0.8,0,1.5,0.1,2.2,0.3c3.1,0.8,5.5,3.1,6.3,6.2
		c2.3,8,4.5,16.1,6.6,24.1c7.1-1.4,14.3-2.6,21.4-3.4c-0.6-7.5-1.2-15.2-1.9-22.7c-0.3-3.1,1-6.1,3.5-7.9c1.5-1.1,3.3-1.6,5.2-1.6
		c1.3,0,2.7,0.3,3.9,0.9c3,1.4,5,4.1,5.3,7.4c0.7,7.5,1.3,15,1.9,22.5c2.4-0.1,4.8-0.1,7.2-0.1c27.5,0,53,5.5,75.8,16.4
		c0.5,0.2,1,0.5,1.5,0.9c3.8,2.8,4.7,8,2.1,11.8c-1.7,2.6-4.5,4.2-7.7,4.2h0c-1.4,0-2.8-0.3-4.1-1c-19.9-9.6-42.5-14.4-67.2-14.4
		c-2.1,0-4.3,0-6.5,0.1c0.9,16.4,1.5,33,1.7,49.4c15.4-0.7,31-1.3,46.4-1.7l0.2,0c4.9,0,8.7,3.7,8.9,8.7c0.1,5.1-3.7,9.2-8.7,9.3
		c-6,0.2-12.1,0.4-18.2,0.6c-0.8,3.9-4.1,6.8-8.3,7.1l-0.2,0c-0.1,0.7-0.3,1.5-0.5,2.1c-1.1,2.8-3.6,4.8-6.7,5.3
		c-4.4,0.7-8.6,1.1-12.7,1.4c-0.2,0-0.4,0-0.6,0c-4.2,0-7.7-3-8.5-7.1l-9,0.6c-0.2,0-0.4,0-0.6,0c-4.3,0-7.8-3-8.5-7.1
		c-8.9,0.5-17.9,1-26.7,1.5c-5.1,7.8-13.1,13.9-19.2,17.8C82.7,148.1,67,152.7,52.9,152.7z M30.9,125.4c5.1,7.6,15,9.2,22.4,9.2
		c4.8,0,10-0.7,15-2c6.5-1.7,12.6-4.5,18.1-8.2c-16.1,1.1-32.3,2.4-48.4,3.7c-0.3,0-0.5,0-0.8,0C34.7,128.1,32.5,127.1,30.9,125.4z
		 M88.7,102.1c-6.3,0-14.6,1.2-22.6,3.2c-3.9,1-7.8,2.2-11.6,3.5c15.4-1.2,30.8-2.3,46.2-3.3c-0.2-0.5-0.5-0.8-0.8-1
		C98.8,103.5,96,102.1,88.7,102.1z M118.2,101c0.3,1,0.5,2.1,0.6,3.3c0.7,0,1.4-0.1,2.1-0.1c-0.9-1-1.7-2.1-2.5-3.2
		C118.3,101,118.2,101,118.2,101z M138.3,100.1c-0.3,1.1-0.7,2.2-1.2,3.2c4.2-0.2,8.5-0.4,12.7-0.7c0-1.5,0-3.1-0.1-4.8
		c-2.7,1.5-5.8,2.4-9,2.4c-0.5,0-1.1,0-1.6-0.1C138.9,100.2,138.6,100.1,138.3,100.1z M94.5,66.4c-20.2,6.9-38.6,15.7-55,26.5
		c-1.8,1.2-3.7,2.5-5.6,3.8c1.8-0.6,3.5-1.2,5.3-1.8l0.2-0.1c14-4.8,28.4-9.7,44.1-10.5c1.3-0.1,2.6-0.1,3.8-0.1
		c4.1,0,7.8,0.3,11.1,1c-1.8-3.7-3.4-7.5-4.7-11.4C92.8,71.3,93.1,68.6,94.5,66.4z M105.7,62.9c1.5,0.6,2.9,1.6,3.8,2.9
		c0.7-0.5,1.5-0.8,2.4-1.1c0.5-0.1,1-0.2,1.5-0.3c-0.3-1.2-0.6-2.3-0.8-3.5C110.2,61.6,107.9,62.2,105.7,62.9z"/>
	<path class="st0" d="M153.8,7.1c0.8,0,1.7,0.2,2.5,0.5c1.8,0.8,3.1,2.5,3.2,4.6c0.8,8.6,1.5,17.3,2.1,25.9c3.5-0.2,7-0.3,10.5-0.3
		c27,0,52,5.4,74.3,16.1c0.3,0.1,0.6,0.3,0.9,0.5c2.3,1.7,2.8,4.8,1.2,7.1c-1,1.7-2.9,2.6-4.8,2.6c-0.8,0-1.7-0.2-2.5-0.6
		c-20.4-9.8-43.5-14.8-68.7-14.8c-3.4,0-6.8,0.1-10.2,0.3c1.1,18.7,1.8,37.6,1.9,56.4c16.6-0.8,33.4-1.4,50-1.9c0,0,0.1,0,0.1,0
		c3,0,5.3,2.2,5.4,5.3c0.1,3.2-2.2,5.6-5.3,5.7c-7.1,0.2-14.3,0.5-21.5,0.7c0.1,0.3,0.1,0.6,0.1,1c0.2,3.2-2.1,5.8-5.2,6l-3.9,0.2
		c0.6,1.3,0.6,2.8,0.1,4.1c-0.7,1.7-2.1,2.8-4,3.1c-4.3,0.7-8.4,1.1-12.4,1.4c-0.1,0-0.3,0-0.4,0c-2.8,0-5-2.1-5.2-4.9
		c-0.1-0.8,0.1-1.6,0.3-2.4l-12.9,0.8c-0.1,0-0.3,0-0.4,0c-2.8,0-5-2.1-5.2-5c-0.1-0.8,0.1-1.6,0.3-2.3c-10.8,0.5-21.7,1.2-32.4,1.8
		c-4.6,7.9-12.8,14.2-19.1,18.2c-10.7,6.9-25.8,11.8-40,11.8c-13.7,0-26.7-4.6-34.3-16.3c-1.7-2.5-1-5.7,1.6-7.3c1-0.7,2.1-1,3.2-1
		c1.8,0,3.5,0.9,4.6,2.5c5.3,8.1,15.3,11,25.4,11c5.5,0,11-0.8,15.9-2.1c7.6-2,14.7-5.4,21.1-10c2.8-2,5.1-3.9,7-5.8
		c-19.8,1.3-39.8,2.8-59.5,4.5c-0.2,0-0.3,0-0.5,0c-2.7,0-4.9-2-5.1-4.8c-0.2-2.8,1.6-5.9,5.1-6.2c22.2-1.9,44.7-3.5,67-4.9
		c0.1-0.4,0.1-0.7,0.1-1.1c0.1-2.6-0.6-4.5-2.3-5.9c-2.7-2.3-7.6-3.1-13.4-3.1c-7.4,0-16.1,1.4-23.5,3.3c-6.9,1.7-13.8,4.1-20.4,6.5
		l-3.3,1.1c-0.9,0.3-1.9,0.7-2.9,1c-6.3,2.3-12.8,4.6-19.6,5c-0.4,0-0.7,0-1.1,0c-3.3,0-6.4-1.1-8.3-2.9c-1.7-1.6-2.6-3.8-2.5-6.2
		c0.2-6.6,7.1-12.4,11.7-16.2l0.7-0.6C29.9,81,42.6,73.2,59.7,65.1c16.9-8,34.6-14.5,52.6-19.3c-2.3-8.9-4.8-18-7.3-26.8
		c-0.5-1.9-0.1-3.8,1.2-5.2c1.1-1.1,2.6-1.7,4.2-1.7c0.5,0,0.9,0.1,1.4,0.2c1.9,0.5,3.3,1.9,3.8,3.8c2.6,9,5.1,18.2,7.4,27.3
		c9.1-2,18.4-3.5,27.7-4.4c-0.6-8.7-1.3-17.4-2.2-26.1c-0.2-1.9,0.6-3.6,2-4.7C151.5,7.4,152.7,7.1,153.8,7.1 M152.2,62.5
		c-0.2-4-0.4-8.6-0.7-12.6c-3.4,0.4-6.9,0.8-10.3,1.4c0.6,0.2,1.1,0.5,1.6,0.9C148.4,53.7,151.8,57.9,152.2,62.5 M126.4,56.8
		c1-1.4,2.2-2.5,3.6-3.5c-0.1,0-0.2,0-0.3,0.1c-1.3,0.3-2.7,0.6-4,0.8C126,55,126.2,55.9,126.4,56.8 M20.1,104.4
		c0.5-0.1,1.1-0.3,1.5-0.4c0.6-0.2,1.1-0.3,1.6-0.4c3.4-0.8,7-1.9,11.4-3.4c1.9-0.7,3.9-1.3,5.8-2c13.7-4.7,27.9-9.6,43.1-10.3
		c1.2-0.1,2.4-0.1,3.6-0.1c7.7,0,13.9,1.2,18.5,3.6c-3.6-5.9-6.6-12.1-8.8-18.7c-0.6-1.8-0.3-3.7,0.9-5.1c1.1-1.2,2.7-1.9,4.3-1.9
		c0.4,0,0.8,0,1.1,0.1c1.9,0.4,3.5,1.8,4.1,3.6c0.4,1.1,0.8,2.1,1.2,3.1c0.5-2.1,2.1-3.9,4.2-4.5c0.5-0.1,1-0.2,1.4-0.2
		c1.5,0,2.8,0.6,3.9,1.8c0,0.1,0.1,0.1,0.1,0.2c-0.9-3.7-1.8-7.5-2.7-11.2c-0.2-0.7-0.3-1.4-0.5-2.1C86,64.1,59.9,75.3,37.6,90
		C31.7,93.9,25.1,98.4,20.1,104.4 M137.4,63.9c0.2,0,0.3,0,0.5,0c1.2-0.1,2.5-0.5,3-0.9c-0.5-0.2-1.5-0.5-3.1-0.6
		c-0.5,0-0.9-0.1-1.4-0.2c-0.5,0.3-1,0.8-1.3,1.4C135.6,63.7,136.4,63.9,137.4,63.9 M152.2,62.5c0,0.6,0,1.3-0.1,1.9
		c-0.4,3-2,5.3-4.2,7c0.4,0.5,0.8,1,1.1,1.6c1.4,1,2.7,2.3,3.8,3.9C152.6,72.1,152.4,67.3,152.2,62.5 M130.9,76
		c0.5-0.7,1.1-1.3,1.7-1.9c-0.8-0.2-1.6-0.6-2.4-0.9C130.5,74.2,130.7,75.1,130.9,76 M141,85.7c1.1,0,2.1-0.5,2.7-1.4l0.2-0.3
		c0-0.1-0.1-0.7-0.6-1.5c-0.5-0.7-1.1-1.2-1.5-1.3c-1.7,0.9-2.8,2.6-2.8,3.5c0,0.4,0.8,0.8,1.2,0.9C140.5,85.7,140.8,85.7,141,85.7
		 M140.8,96.8c-0.4,0-0.8,0-1.2-0.1c-1.5-0.2-3-0.6-4.4-1.3c0.1,2.4-0.3,4.8-1.5,6.9c-0.2,0.4-0.5,0.7-0.8,1c-1,1.1-2.4,1.7-3.9,1.7
		c0,0,0,0-0.1,0c-1.4,0-2.8-0.5-3.9-1.6c-2.7-2.5-4.6-5.4-6.2-8.5c-0.4,1.5-1.6,2.7-3.2,3.3c-0.7,0.2-1.3,0.3-2,0.3
		c-0.1,0-0.2,0-0.3,0c1,1.9,1.6,4,1.9,6.3c0.1,1,0.1,2.1,0.1,3.1c12.6-0.8,25.3-1.4,37.9-2.1c0-5.3-0.1-10.6-0.2-15.9
		C150.4,94.2,145.4,96.8,140.8,96.8 M128.8,98.7c0.7-1.6,0.5-4-0.1-6.3l-3.6,1.5C126.1,95.6,127.3,97.3,128.8,98.7 M153.8,0.1
		L153.8,0.1c-2.7,0-5.2,0.8-7.3,2.3c-3.5,2.5-5.4,6.6-4.9,11.1c0.6,6.4,1.2,12.8,1.7,19.3c-5.1,0.7-10.1,1.5-15.2,2.4
		c-1.9-7-3.8-14-5.8-21c-1.2-4.3-4.5-7.6-8.9-8.6c-1-0.2-2-0.4-3.1-0.4c-3.5,0-6.8,1.4-9.2,3.9c-3.1,3.2-4.2,7.7-2.9,12
		c1.9,6.6,3.7,13.3,5.5,20c-16.1,4.7-32,10.6-47.1,17.8c-17.6,8.3-30.9,16.4-41.6,25.5l-0.7,0.6c-5.2,4.4-14,11.6-14.2,21.4
		c-0.1,4.4,1.6,8.5,4.7,11.5c2.3,2.2,5.3,3.7,8.7,4.4c-3.5,4.1-4,10-0.9,14.7c8.2,12.6,22.5,19.5,40.2,19.5
		c14.8,0,31.2-4.8,43.8-12.9c6-3.8,13.9-9.8,19.3-17.4c7.4-0.4,14.9-0.9,22.3-1.3c2,4.2,6.1,6.9,11,6.9c0.3,0,0.6,0,0.8,0l6.3-0.4
		c2,4.1,6.1,6.9,11,6.9c0.3,0,0.6,0,0.9,0c4.2-0.3,8.5-0.8,13-1.5c4.4-0.7,7.9-3.4,9.5-7.5c0-0.1,0.1-0.2,0.1-0.3
		c3.7-0.9,6.6-3.5,8.2-6.8c5.3-0.2,10.5-0.4,15.7-0.5c7-0.2,12.3-5.9,12.1-12.9c-0.2-6.9-5.5-12.1-12.4-12.1c-0.1,0-0.2,0-0.3,0l0,0
		l0,0c-14.3,0.4-28.7,0.9-42.9,1.5c-0.2-14.1-0.7-28.3-1.5-42.3c0.9,0,1.9,0,2.8,0c24.1,0,46.2,4.7,65.7,14.1
		c1.7,0.8,3.6,1.3,5.6,1.3c4.3,0,8.3-2.2,10.6-5.8c3.7-5.4,2.4-12.7-2.9-16.6c-0.7-0.5-1.4-0.9-2.1-1.2
		c-23.2-11.1-49.2-16.7-77.3-16.7c-1.3,0-2.6,0-4,0c-0.5-6.4-1.1-12.9-1.7-19.3c-0.4-4.5-3.2-8.4-7.3-10.3
		C157.5,0.5,155.7,0.1,153.8,0.1L153.8,0.1z M60.9,84.5c9.1-4.7,18.7-8.9,28.8-12.6c0.1,1.1,0.3,2.2,0.7,3.2c0.7,2,1.4,4,2.3,6
		c-1.7-0.1-3.5-0.2-5.4-0.2c-1.3,0-2.6,0-3.9,0.1C75.6,81.3,68.1,82.6,60.9,84.5L60.9,84.5z M47.9,130.8c6.4-0.5,12.8-1,19.3-1.5
		c-4.6,1.2-9.4,1.8-13.8,1.8C51.3,131.1,49.5,131,47.9,130.8L47.9,130.8z"/>
</g>
<path class="st1" d="M245.2,56.6c-27.1-13-56.7-17.3-86.3-15.4c-0.7-9.6-1.4-19.2-2.4-28.7c-0.3-3.2-5.3-3.2-5,0
	c0.9,9.7,1.7,19.4,2.4,29.1c-11.1,1-22.2,2.8-33.1,5.3c-2.6-10-5.3-20-8.1-30c-0.9-3.1-5.7-1.8-4.8,1.3c2.8,9.9,5.5,19.8,8.1,29.8
	c-18.9,4.8-37.4,11.4-55,19.8C47.1,74.4,33.3,82,21.5,91.9c-3.9,3.2-11.2,9-11.3,14.6c-0.1,4.8,4.7,6.3,8.7,6.1
	c7.3-0.5,14.8-3.5,21.6-5.9c7.9-2.8,15.8-5.6,23.9-7.7c9.6-2.4,43.9-9.5,42.9,8.8c-0.1,1.3-0.3,2.5-0.7,3.8
	c-23.1,1.4-46.1,3.1-69.1,5.1c-3.2,0.3-3.2,5.3,0,5c22.2-1.9,44.4-3.5,66.6-4.9c-3.2,4.7-8,8.7-12.1,11.7
	c-6.6,4.8-14.1,8.4-22.1,10.5c-14.5,3.9-35.3,4-44.6-10.1c-1.8-2.7-6.1-0.2-4.3,2.5c14.9,22.7,50.9,16,70.2,3.6
	c6.7-4.3,14.9-10.8,18.9-18.6c15.4-0.9,30.8-1.8,46.3-2.5c0,0.8,0,1.6,0,2.4l-6.9,0.4c-3.2,0.2-3.2,5.2,0,5l38.3-2.4
	c3.2-0.2,3.2-5.2,0-5l-26.4,1.7c0-0.8,0-1.6,0-2.3c17.7-0.8,35.4-1.5,53.1-2c3.2-0.1,3.2-5.1,0-5c-17.7,0.5-35.4,1.2-53.1,2
	c-0.1-20.8-0.8-41.6-2.1-62.4c28.6-1.9,57.4,2.1,83.4,14.7c1.2,0.6,2.7,0.2,3.4-1c0.7-1,0.5-2.3-0.5-3
	C245.5,56.8,245.4,56.7,245.2,56.6z M112,111.2c0.5-2,0.6-4,0.4-6c-1.4-13.5-18-14.8-28.5-14.3C67,91.7,51.5,97.7,35.7,103
	c-3.9,1.3-7.7,2.5-11.7,3.4c-1.8,0.4-4.4,1.5-6.2,1.1c-3.2-0.7-2-2.6-0.2-4.7c5.1-6.2,11.8-11,18.5-15.4
	C60.5,71.4,88.6,60.1,117.3,53c0.4,1.7,0.8,3.3,1.2,5c1.6,6.3,3,12.7,4.5,19.1c0.8,3.5,1.6,7,2.3,10.5c0.2,1.2,0.9,3.1,1.4,5.1
	c-4.1-6.7-5.6-15-10.8-21c-1.6-1.8-4-0.1-4.3,1.8c-0.5,3.5-0.7,7.1-0.8,10.7c-2.4-4.4-4.5-9-6.1-13.7c-1-3-5.9-1.7-4.8,1.3
	c2.8,8.1,6.7,15.7,11.6,22.7c1.3,1.8,4.9,1.4,4.7-1.3c-0.3-4.2-0.4-8.3-0.2-12.5c3.6,7,5.2,15,11.2,20.5c1,1,2.6,0.9,3.6-0.1
	c0.1-0.1,0.3-0.3,0.4-0.5c2.9-4.7-0.5-12.3-1.6-17.3c-1.6-7.3-3.3-14.7-5-22c-0.8-3.2-1.6-6.4-2.3-9.5c2.3-0.5,4.7-1,7-1.5
	c8.3-1.7,16.7-3,25.1-3.8c1.3,20.7,2,41.5,2.1,62.2C141.6,109.5,126.8,110.3,112,111.2z"/>
<path class="st1" d="M149.1,63.9c0.8-5.2-3.4-8-7.8-9.1c-0.3-0.4-0.8-0.7-1.3-0.8c-5.5-1.3-11.2,2.6-12.8,8c-1.8,6.2,4.7,9.7,10,9.8
	C142,72,148.3,69.4,149.1,63.9z M132.3,62.5c0.8-1.8,2.3-3.1,4.2-3.6c0.4,0.3,0.9,0.5,1.4,0.5c2,0.1,6.4,0.6,6.2,3.7
	c-0.2,2.6-4,3.7-6.1,3.8C135.5,67,130.9,66.3,132.3,62.5z"/>
<path class="st1" d="M146.4,74.9c-0.1-1.2-1.1-2.1-2.4-2.2c-5.7-0.3-11.7,4.1-12.8,9.8c-1.1,5.4,3.4,10.7,8.7,11.2
	s11.5-3.6,12.2-9.2C152.5,80.8,149.7,77,146.4,74.9z M146.4,85.7c-1.5,2.4-4.3,3.6-7,2.9c-6.4-2.1-2.6-8.7,2.1-10.4
	c0.1,0,0.3,0.1,0.4,0.1C144.9,78.6,148,83.1,146.4,85.7L146.4,85.7z"/>
<path class="st1" d="M178.5,121.9c-3.6,0.6-7.2,0.9-10.8,1.2c-3.2,0.2-3.2,5.2,0,5c4.1-0.3,8.1-0.8,12.2-1.4
	C183,126.3,181.6,121.5,178.5,121.9z"/>
<path class="st0" d="M42.3,129.3l32.3-1.2C74.6,128.1,51.4,138.2,42.3,129.3z"/>
<path class="st0" d="M56.9,87.4c0,0,23.7-7.3,38.5-3.9c-3.2-8.9-3.4-6.7-4.3-13.8C71.9,72.7,56.9,87.4,56.9,87.4z"/>
</svg>
