<?xml version="1.0" encoding="utf-8"?>
<!-- Generator: Adobe Illustrator 19.2.0, SVG Export Plug-In . SVG Version: 6.00 Build 0)  -->
<svg version="1.1" id="Layer_1" xmlns="http://www.w3.org/2000/svg" xmlns:xlink="http://www.w3.org/1999/xlink" x="0px" y="0px"
	 viewBox="0 0 252 144.5" style="enable-background:new 0 0 252 144.5;" xml:space="preserve">
<g id="Layer_1">
	<g>
		<path d="M242.7,51c-27.1-13-56.7-17.3-86.3-15.4c-0.7-9.6-1.4-19.2-2.4-28.7c-0.3-3.2-5.3-3.2-5,0c0.9,9.7,1.7,19.4,2.4,29.1
			c-11.1,1-22.2,2.8-33.1,5.3c-2.6-10-5.3-20-8.1-30c-0.9-3.1-5.7-1.8-4.8,1.3c2.8,9.9,5.5,19.8,8.1,29.8
			c-19.1,4.8-37.7,11.6-55,19.8C44.6,68.8,30.8,76.4,19,86.3c-3.9,3.2-11.2,9-11.3,14.5c-0.1,4.7,4.7,6.3,8.7,6.1
			c7.3-0.5,14.8-3.5,21.6-5.9c7.9-2.8,15.8-5.6,23.9-7.7c9.6-2.4,43.9-9.5,42.9,8.8c-0.1,1.3-0.3,2.5-0.7,3.8
			C81.1,107.4,58,109.1,35,111c-3.2,0.3-3.2,5.3,0,5c22.2-1.9,44.4-3.5,66.6-4.9c-3.2,4.7-8,8.7-12.1,11.7
			c-6.6,4.8-14.1,8.4-22.1,10.5c-14.5,3.9-35.3,4-44.6-10.1c-1.8-2.7-6.1-0.2-4.3,2.5c14.9,22.7,50.9,16,70.2,3.6
			c6.7-4.3,14.9-10.8,18.9-18.6c15.4-0.9,30.8-1.8,46.3-2.5c0,0.8,0,1.6,0,2.4c-2.3,0.1-4.6,0.3-6.9,0.4c-3.2,0.2-3.2,5.2,0,5
			c12.8-0.8,25.6-1.6,38.3-2.4c3.2-0.2,3.2-5.2,0-5c-8.8,0.6-17.6,1.1-26.4,1.7c0-0.8,0-1.6,0-2.3c17.7-0.8,35.4-1.5,53.1-2
			c3.2-0.1,3.2-5.1,0-5c-17.7,0.5-35.4,1.2-53.1,2c-0.1-20.8-0.8-41.6-2.1-62.4c28.6-1.9,57.4,2.1,83.5,14.7c1.4,0.7,2.7,0,3.4-1
			C244.3,53.2,244.2,51.7,242.7,51z M109.5,105.6c0.4-1.9,0.6-3.9,0.4-6c-1.4-13.5-18-14.8-28.5-14.3c-16.8,0.8-32.4,6.8-48.2,12.1
			c-3.9,1.3-7.7,2.5-11.7,3.4c-1.8,0.4-4.4,1.5-6.2,1.1c-3.2-0.7-2-2.6-0.2-4.7c5.1-6.2,11.8-11,18.4-15.4
			C58,65.8,86.1,54.5,114.7,47.4c0.4,1.7,0.8,3.3,1.2,5c1.6,6.3,3,12.7,4.5,19.1c0.8,3.5,1.6,7,2.3,10.5c0.3,1.2,0.9,3.1,1.4,5.1
			c-4.1-6.6-5.6-15-10.8-21c-1.6-1.8-4-0.1-4.3,1.8c-0.5,3.6-0.7,7.1-0.8,10.7c-2.4-4.4-4.5-8.9-6.1-13.7c-1-3-5.9-1.7-4.8,1.3
			c2.8,8.1,6.6,15.7,11.6,22.7c1.3,1.8,4.9,1.4,4.7-1.3c-0.3-4.2-0.4-8.3-0.2-12.5c3.6,7,5.2,15,11.2,20.5c1.2,1.1,3.1,0.9,3.9-0.5
			c2.9-4.7-0.5-12.3-1.6-17.3c-1.6-7.3-3.3-14.7-5-22c-0.8-3.2-1.6-6.4-2.3-9.5c2.3-0.5,4.7-1.1,7-1.5c8.3-1.7,16.7-3,25.1-3.7
			c1.3,20.7,2,41.5,2.1,62.2C139.1,103.9,124.3,104.7,109.5,105.6z M146.6,58.3c0.8-5.2-3.4-8.1-7.8-9.1c-0.3-0.4-0.7-0.7-1.3-0.8
			c-5.5-1.3-11.2,2.6-12.8,8c-1.8,6.2,4.7,9.7,10,9.8C139.5,66.4,145.7,63.8,146.6,58.3z M129.8,56.9c0.7-1.7,2.4-3.2,4.2-3.6
			c0.4,0.3,0.9,0.5,1.4,0.5c2,0.1,6.4,0.6,6.2,3.7c-0.2,2.6-4,3.7-6.1,3.8C133,61.4,128.4,60.7,129.8,56.9z M143.8,69.3
			c-0.2-1.1-1-2.1-2.4-2.2c-5.7-0.3-11.7,4.1-12.8,9.8c-1.1,5.4,3.4,10.7,8.7,11.2c5.4,0.6,11.5-3.6,12.2-9.2
			C150,75.2,147.2,71.4,143.8,69.3z M143.9,80.1c-1.4,2.3-4.4,3.7-7,2.9c-6.4-2.1-2.6-8.7,2.1-10.4c0.1,0,0.3,0.1,0.4,0.1
			C142.4,73,145.5,77.5,143.9,80.1z M177.3,121.2c-4,0.6-8.1,1.1-12.2,1.4c-3.2,0.2-3.2-4.8,0-5c3.6-0.3,7.2-0.6,10.8-1.2
			C179.1,115.8,180.4,120.7,177.3,121.2z"/>
	</g>
</g>
</svg>
